<?xml version="1.0" standalone="no"?>
<!DOCTYPE svg PUBLIC "-//W3C//DTD SVG 20010904//EN"
 "http://www.w3.org/TR/2001/REC-SVG-20010904/DTD/svg10.dtd">
<svg version="1.0" xmlns="http://www.w3.org/2000/svg"
 width="1024.000000pt" height="1024.000000pt" viewBox="0 0 1024.000000 1024.000000"
 preserveAspectRatio="xMidYMid meet">
<metadata>
Created by potrace 1.11, written by Peter Selinger 2001-2013
</metadata>
<g transform="translate(0.000000,1024.000000) scale(0.100000,-0.100000)"
fill="#000000" stroke="none">
<path d="M0 5120 l0 -5120 5120 0 5120 0 0 5120 0 5120 -5120 0 -5120 0 0
-5120z m5497 3485 c347 -28 572 -72 862 -167 492 -162 871 -431 1142 -809 80
-111 190 -301 181 -310 -10 -10 -963 -499 -972 -499 -4 0 -19 17 -32 38 -134
200 -425 413 -726 533 -107 43 -293 95 -426 120 -161 30 -491 37 -686 15 -356
-41 -621 -146 -803 -316 -101 -94 -165 -192 -203 -306 -26 -80 -29 -103 -29
-219 0 -142 11 -189 68 -299 139 -265 559 -432 1317 -526 676 -84 1078 -170
1448 -311 640 -244 1019 -623 1176 -1174 47 -166 67 -314 73 -540 6 -234 -4
-354 -43 -534 -60 -269 -177 -517 -342 -725 -349 -441 -943 -736 -1697 -846
-233 -34 -395 -44 -700 -44 -305 0 -466 10 -700 44 -967 141 -1630 582 -2010
1339 -31 62 -67 137 -80 166 l-24 54 142 74 c338 177 889 459 890 455 1 -1 25
-50 53 -108 181 -369 527 -654 974 -800 258 -85 493 -120 801 -120 799 0 1341
261 1478 713 66 217 42 463 -61 634 -139 231 -417 393 -853 498 -185 44 -214
49 -535 90 -375 48 -551 76 -780 126 -923 198 -1461 561 -1690 1139 -76 190
-114 389 -126 655 -13 300 40 564 166 820 232 475 701 825 1360 1014 210 60
558 119 795 134 143 9 425 5 592 -8z"/>
</g>
</svg>
