<svg xmlns="http://www.w3.org/2000/svg" width="1285.1" height="215.18" viewBox="0 0 1285.1 215.18"><g transform="translate(-953.61 -553.04)"><path d="M169.94-169.65c-15.37-31.32-48.14-40.31-79.75-40.31-37.41.29-78.59,17.4-78.59,59.16,0,45.53,38.28,56.55,79.75,61.48,26.97,2.9,46.98,10.73,46.98,29.87C138.33-37.41,115.71-29,91.64-29,66.99-29,43.5-38.86,34.51-61.19L2.61-44.66C17.69-7.54,49.59,5.22,91.06,5.22c45.24,0,85.26-19.43,85.26-64.67,0-48.43-39.44-59.45-81.78-64.67-24.36-2.9-45.24-7.83-45.24-25.52,0-15.08,13.63-26.97,42.05-26.97,22.04,0,41.18,11.02,48.14,22.62ZM206.19-203V0h35.38V-73.08c0-21.46,14.5-39.15,35.38-39.15,18.85,0,32.48,11.02,32.48,37.12V0h35.38V-75.4c0-42.05-17.98-69.6-58.58-69.6-16.24,0-31.9,4.93-44.66,21.46V-203Zm280.72,79.75c-8.12-14.21-26.39-23.2-45.53-23.2-41.76-.29-74.53,25.52-74.53,74.82,0,50.17,31.32,76.27,73.66,75.98,15.95-.29,38.28-8.41,46.4-25.23L488.65,0H522V-142.97H488.07Zm-42.34,8.41c55.68,0,55.68,86.71,0,86.71-23.49,0-42.34-16.24-42.34-43.5S421.08-114.84,444.57-114.84Zm176.61,1.45c22.33,0,41.47,16.82,41.47,41.76,0,25.81-19.14,42.05-41.47,42.05-22.62,0-40.6-17.11-40.6-42.05C580.58-97.44,598.56-113.39,621.18-113.39Zm43.79-89.32v79.17c-8.41-14.79-31.9-22.91-46.98-22.91-41.76,0-72.79,25.52-72.79,74.82,0,46.98,31.61,74.82,73.66,74.82,17.4,0,35.09-5.8,46.11-22.91L667.29,0h33.06V-202.71Zm133.4,56.84c-45.53,0-73.95,33.64-73.95,74.53,0,41.18,27.84,74.53,74.24,74.53s74.53-33.35,74.53-74.53C873.19-112.23,843.9-145.87,798.37-145.87Zm.29,32.19c23.78,0,38.86,20.88,38.86,42.34,0,21.75-13.05,42.05-38.86,42.05S759.8-49.59,759.8-71.34C759.8-92.8,773.14-113.68,798.66-113.68ZM991.8-143.26,960.77-35.67,928-143.26H888.56L938.73.58h41.18L994.7-41.76l12.76-47.85,12.76,47.85L1035.01.58h41.18l49.88-143.84h-39.15L1054.15-35.67l-31.32-107.59Zm277.24,15.08c-16.53-14.5-33.35-18.85-55.68-18.85-26.1,0-60.32,11.6-60.32,44.66,0,32.48,32.19,42.34,59.16,44.37,20.3,1.16,28.42,5.22,28.42,15.08,0,10.44-12.47,17.4-25.81,17.11-15.95-.29-39.15-8.7-49.3-20.01l-17.4,25.23c20.88,21.75,43.5,25.52,66.12,25.52,40.89,0,61.48-21.75,61.48-46.98,0-37.99-34.22-44.08-61.19-45.82-18.27-1.16-26.68-6.38-26.68-15.66,0-8.99,9.28-14.21,26.1-14.21,13.63,0,25.23,3.19,35.38,12.76Z" transform="translate(951 763)" fill="#fff" opacity="0.224"/><path d="M169.94-169.65c-15.37-31.32-48.14-40.31-79.75-40.31-37.41.29-78.59,17.4-78.59,59.16,0,45.53,38.28,56.55,79.75,61.48,26.97,2.9,46.98,10.73,46.98,29.87C138.33-37.41,115.71-29,91.64-29,66.99-29,43.5-38.86,34.51-61.19L2.61-44.66C17.69-7.54,49.59,5.22,91.06,5.22c45.24,0,85.26-19.43,85.26-64.67,0-48.43-39.44-59.45-81.78-64.67-24.36-2.9-45.24-7.83-45.24-25.52,0-15.08,13.63-26.97,42.05-26.97,22.04,0,41.18,11.02,48.14,22.62ZM206.19-203V0h35.38V-73.08c0-21.46,14.5-39.15,35.38-39.15,18.85,0,32.48,11.02,32.48,37.12V0h35.38V-75.4c0-42.05-17.98-69.6-58.58-69.6-16.24,0-31.9,4.93-44.66,21.46V-203Zm280.72,79.75c-8.12-14.21-26.39-23.2-45.53-23.2-41.76-.29-74.53,25.52-74.53,74.82,0,50.17,31.32,76.27,73.66,75.98,15.95-.29,38.28-8.41,46.4-25.23L488.65,0H522V-142.97H488.07Zm-42.34,8.41c55.68,0,55.68,86.71,0,86.71-23.49,0-42.34-16.24-42.34-43.5S421.08-114.84,444.57-114.84Zm176.61,1.45c22.33,0,41.47,16.82,41.47,41.76,0,25.81-19.14,42.05-41.47,42.05-22.62,0-40.6-17.11-40.6-42.05C580.58-97.44,598.56-113.39,621.18-113.39Zm43.79-89.32v79.17c-8.41-14.79-31.9-22.91-46.98-22.91-41.76,0-72.79,25.52-72.79,74.82,0,46.98,31.61,74.82,73.66,74.82,17.4,0,35.09-5.8,46.11-22.91L667.29,0h33.06V-202.71Zm133.4,56.84c-45.53,0-73.95,33.64-73.95,74.53,0,41.18,27.84,74.53,74.24,74.53s74.53-33.35,74.53-74.53C873.19-112.23,843.9-145.87,798.37-145.87Zm.29,32.19c23.78,0,38.86,20.88,38.86,42.34,0,21.75-13.05,42.05-38.86,42.05S759.8-49.59,759.8-71.34C759.8-92.8,773.14-113.68,798.66-113.68ZM991.8-143.26,960.77-35.67,928-143.26H888.56L938.73.58h41.18L994.7-41.76l12.76-47.85,12.76,47.85L1035.01.58h41.18l49.88-143.84h-39.15L1054.15-35.67l-31.32-107.59Zm277.24,15.08c-16.53-14.5-33.35-18.85-55.68-18.85-26.1,0-60.32,11.6-60.32,44.66,0,32.48,32.19,42.34,59.16,44.37,20.3,1.16,28.42,5.22,28.42,15.08,0,10.44-12.47,17.4-25.81,17.11-15.95-.29-39.15-8.7-49.3-20.01l-17.4,25.23c20.88,21.75,43.5,25.52,66.12,25.52,40.89,0,61.48-21.75,61.48-46.98,0-37.99-34.22-44.08-61.19-45.82-18.27-1.16-26.68-6.38-26.68-15.66,0-8.99,9.28-14.21,26.1-14.21,13.63,0,25.23,3.19,35.38,12.76Z" transform="translate(963 763)" fill="#fff"/></g></svg>